<svg width="270" height="27" fill="none" xmlns="http://www.w3.org/2000/svg"><path d="M8.648 15.704v6.264c0 .96.096 1.668.288 2.124.216.432.576.72 1.08.864.528.144 1.356.228 2.484.252V26c-2.952-.072-5.148-.108-6.588-.108-1.2 0-2.712.024-4.536.072L.224 26v-.72c.792-.048 1.368-.144 1.728-.288.384-.144.636-.42.756-.828.144-.408.216-1.068.216-1.98V4.328c0-.912-.072-1.572-.216-1.98-.12-.408-.372-.684-.756-.828-.36-.144-.936-.24-1.728-.288v-.72C1.448.584 3.272.62 5.696.62L9.692.584c.48-.024 1.032-.036 1.656-.036 3.24 0 5.712.648 7.416 1.944C20.468 3.764 21.32 5.48 21.32 7.64c0 1.32-.336 2.592-1.008 3.816-.672 1.2-1.812 2.208-3.42 3.024-1.584.816-3.696 1.224-6.336 1.224H8.648zM10.88 1.232c-.648 0-1.128.084-1.44.252-.288.168-.492.468-.612.9s-.18 1.08-.18 1.944v10.656h1.548c1.944 0 3.288-.624 4.032-1.872.744-1.248 1.116-2.94 1.116-5.076 0-2.328-.348-4.044-1.044-5.148-.672-1.104-1.812-1.656-3.42-1.656zm35.6985 23.256c-.576.672-1.224 1.176-1.944 1.512-.72.336-1.62.504-2.7.504-1.368 0-2.424-.264-3.168-.792-.744-.528-1.224-1.236-1.44-2.124l-1.044-4.248c-.264-1.344-.672-2.232-1.224-2.664-.528-.456-1.32-.684-2.376-.684h-1.188v6.192c0 .912.06 1.572.18 1.98.144.408.396.684.756.828.384.144.972.24 1.764.288V26c-1.368-.072-3.324-.108-5.868-.108-2.232 0-3.912.036-5.04.108v-.72c.816-.048 1.404-.144 1.764-.288.36-.144.6-.42.72-.828.144-.408.216-1.068.216-1.98V7.928c0-.912-.072-1.572-.216-1.98-.12-.408-.36-.684-.72-.828-.36-.144-.948-.24-1.764-.288v-.72c1.128.072 2.736.108 4.824.108l4.104-.036c.48-.024 1.02-.036 1.62-.036 3.216 0 5.616.492 7.2 1.476 1.608.96 2.412 2.304 2.412 4.032 0 1.488-.636 2.796-1.908 3.924-1.272 1.128-3.396 1.848-6.372 2.16.336 0 .684.036 1.044.108 1.728.192 3.084.576 4.068 1.152 1.008.576 1.668 1.488 1.98 2.736l.756 3.204c.168.672.372 1.152.612 1.44.24.288.54.432.9.432.504 0 1.02-.264 1.548-.792l.504.468zM33.3665 4.832c-.528 0-.924.084-1.188.252-.264.168-.444.468-.54.9-.096.432-.144 1.08-.144 1.944v7.344h1.548c1.776 0 2.988-.456 3.636-1.368.672-.912 1.008-2.196 1.008-3.852 0-1.752-.336-3.06-1.008-3.924-.648-.864-1.752-1.296-3.312-1.296zM66.0551 21.32c0 1.368.084 2.928.252 4.68-1.56-.072-4.188-.108-7.884-.108-4.944 0-8.664.036-11.16.108v-.72c.816-.048 1.404-.144 1.764-.288.36-.144.6-.42.72-.828.144-.408.216-1.068.216-1.98V7.928c0-.912-.072-1.572-.216-1.98-.12-.408-.372-.684-.756-.828-.36-.144-.936-.24-1.728-.288v-.72c2.496.072 6.216.108 11.16.108 3.36 0 5.748-.036 7.164-.108-.168 1.608-.252 3.048-.252 4.32 0 .936.036 1.68.108 2.232h-.828c-.36-2.064-.984-3.528-1.872-4.392-.888-.888-2.112-1.332-3.672-1.332h-1.332c-.624 0-1.092.06-1.404.18-.312.096-.54.312-.684.648-.12.312-.18.816-.18 1.512v7.344h1.692c1.104 0 1.932-.384 2.484-1.152.576-.792.96-1.704 1.152-2.736h.828c-.072.816-.108 1.752-.108 2.808v1.44c0 1.08.072 2.496.216 4.248h-.828c-.168-1.128-.552-2.052-1.152-2.772-.576-.744-1.44-1.116-2.592-1.116h-1.692v7.488c0 .696.06 1.212.18 1.548.144.312.372.528.684.648.312.096.78.144 1.404.144h1.548c1.704 0 3.036-.492 3.996-1.476.984-.984 1.668-2.64 2.052-4.968h.828c-.072.672-.108 1.536-.108 2.592zM98.6126 4.832c-.864.048-1.5.144-1.908.288-.384.144-.648.42-.792.828-.144.408-.216 1.068-.216 1.98v14.256c0 .912.072 1.572.216 1.98.144.408.408.684.792.828.408.144 1.044.24 1.908.288V26c-1.296-.072-3.108-.108-5.436-.108-2.784 0-4.824.036-6.12.108v-.72c.864-.048 1.488-.144 1.872-.288.408-.144.684-.42.828-.828.144-.408.216-1.068.216-1.98V6.38l-8.244 19.8h-.576l-8.352-19.764v14.76c0 1.056.096 1.86.288 2.412.192.528.54.912 1.044 1.152.528.24 1.32.42 2.376.54V26c-1.032-.072-2.4-.108-4.104-.108-1.32 0-2.364.036-3.132.108v-.72c.792-.12 1.368-.3 1.728-.54.384-.24.636-.624.756-1.152.144-.528.216-1.332.216-2.412V7.928c0-.912-.072-1.572-.216-1.98-.144-.408-.42-.684-.828-.828-.384-.144-1.008-.24-1.872-.288v-.72c1.248.072 3.156.108 5.724.108 1.248 0 2.316-.036 3.204-.108l5.976 14.364 6.012-14.256h3.204c2.328 0 4.14-.036 5.436-.108v.72zm13.2424 0c-.816.048-1.404.144-1.764.288-.36.144-.612.42-.756.828-.12.408-.18 1.068-.18 1.98v14.256c0 .912.06 1.572.18 1.98.144.408.396.684.756.828.36.144.948.24 1.764.288V26c-1.224-.072-3-.108-5.328-.108-2.52 0-4.38.036-5.58.108v-.72c.816-.048 1.404-.144 1.764-.288.36-.144.6-.42.72-.828.144-.408.216-1.068.216-1.98V7.928c0-.912-.072-1.572-.216-1.98-.12-.408-.372-.684-.756-.828-.36-.144-.936-.24-1.728-.288v-.72c1.176.072 3.036.108 5.58.108 2.328 0 4.104-.036 5.328-.108v.72zm24.771 0c-.84.12-1.464.324-1.872.612-.408.288-.684.744-.828 1.368-.144.624-.216 1.548-.216 2.772v6.66c0 1.656-.12 3.072-.36 4.248-.216 1.152-.588 2.16-1.116 3.024-.576.912-1.44 1.644-2.592 2.196-1.128.528-2.412.792-3.852.792-2.712 0-4.824-.528-6.336-1.584-.84-.624-1.476-1.296-1.908-2.016-.432-.72-.744-1.584-.936-2.592-.168-1.032-.252-2.352-.252-3.96V7.928c0-.912-.072-1.572-.216-1.98-.12-.408-.372-.684-.756-.828-.36-.144-.936-.24-1.728-.288v-.72c1.2.072 3.024.108 5.472.108 2.328 0 4.14-.036 5.436-.108v.72c-.816.048-1.404.144-1.764.288-.36.144-.612.42-.756.828-.12.408-.18 1.068-.18 1.98v9.036c0 1.728.108 3.156.324 4.284.24 1.128.732 2.04 1.476 2.736.744.696 1.848 1.044 3.312 1.044 2.184 0 3.708-.732 4.572-2.196.888-1.488 1.332-3.552 1.332-6.192v-6.624c0-1.392-.084-2.424-.252-3.096-.168-.672-.492-1.152-.972-1.44-.48-.312-1.236-.528-2.268-.648v-.72c.936.072 2.232.108 3.888.108 1.44 0 2.556-.036 3.348-.108v.72zm31.069 0c-.864.048-1.5.144-1.908.288-.384.144-.648.42-.792.828-.144.408-.216 1.068-.216 1.98v14.256c0 .912.072 1.572.216 1.98.144.408.408.684.792.828.408.144 1.044.24 1.908.288V26c-1.296-.072-3.108-.108-5.436-.108-2.784 0-4.824.036-6.12.108v-.72c.864-.048 1.488-.144 1.872-.288.408-.144.684-.42.828-.828.144-.408.216-1.068.216-1.98V6.38l-8.244 19.8h-.576l-8.352-19.764v14.76c0 1.056.096 1.86.288 2.412.192.528.54.912 1.044 1.152.528.24 1.32.42 2.376.54V26c-1.032-.072-2.4-.108-4.104-.108-1.32 0-2.364.036-3.132.108v-.72c.792-.12 1.368-.3 1.728-.54.384-.24.636-.624.756-1.152.144-.528.216-1.332.216-2.412V7.928c0-.912-.072-1.572-.216-1.98-.144-.408-.42-.684-.828-.828-.384-.144-1.008-.24-1.872-.288v-.72c1.248.072 3.156.108 5.724.108 1.248 0 2.316-.036 3.204-.108l5.976 14.364 6.012-14.256h3.204c2.328 0 4.14-.036 5.436-.108v.72zM191.499.008c1.44 0 2.664.204 3.672.612 1.008.408 1.992.984 2.952 1.728.264.216.492.324.684.324.48 0 .792-.72.936-2.16h.828c-.096 1.632-.144 4.536-.144 8.712h-.828c-.216-1.776-.504-3.132-.864-4.068-.36-.936-.972-1.752-1.836-2.448-.6-.576-1.296-1.008-2.088-1.296-.792-.312-1.62-.468-2.484-.468-2.424 0-4.224 1.188-5.4 3.564-1.176 2.352-1.764 5.292-1.764 8.82 0 3.504.612 6.432 1.836 8.784 1.224 2.352 3.048 3.528 5.472 3.528.816 0 1.62-.144 2.412-.432.816-.312 1.5-.756 2.052-1.332.888-.672 1.5-1.512 1.836-2.52.36-1.008.636-2.484.828-4.428h.828c0 4.344.048 7.368.144 9.072h-.828c-.072-.768-.18-1.308-.324-1.62-.12-.336-.3-.504-.54-.504-.192 0-.444.096-.756.288-1.08.768-2.112 1.356-3.096 1.764-.984.384-2.172.576-3.564.576-2.544 0-4.776-.516-6.696-1.548-1.896-1.032-3.372-2.52-4.428-4.464-1.056-1.968-1.584-4.308-1.584-7.02 0-2.64.54-4.98 1.62-7.02 1.08-2.04 2.58-3.624 4.5-4.752 1.944-1.128 4.152-1.692 6.624-1.692zm34.635 4.824c-.84.12-1.464.324-1.872.612-.408.288-.684.744-.828 1.368-.144.624-.216 1.548-.216 2.772v6.66c0 1.656-.12 3.072-.36 4.248-.216 1.152-.588 2.16-1.116 3.024-.576.912-1.44 1.644-2.592 2.196-1.128.528-2.412.792-3.852.792-2.712 0-4.824-.528-6.336-1.584-.84-.624-1.476-1.296-1.908-2.016-.432-.72-.744-1.584-.936-2.592-.168-1.032-.252-2.352-.252-3.96V7.928c0-.912-.072-1.572-.216-1.98-.12-.408-.372-.684-.756-.828-.36-.144-.936-.24-1.728-.288v-.72c1.2.072 3.024.108 5.472.108 2.328 0 4.14-.036 5.436-.108v.72c-.816.048-1.404.144-1.764.288-.36.144-.612.42-.756.828-.12.408-.18 1.068-.18 1.98v9.036c0 1.728.108 3.156.324 4.284.24 1.128.732 2.04 1.476 2.736.744.696 1.848 1.044 3.312 1.044 2.184 0 3.708-.732 4.572-2.196.888-1.488 1.332-3.552 1.332-6.192v-6.624c0-1.392-.084-2.424-.252-3.096-.168-.672-.492-1.152-.972-1.44-.48-.312-1.236-.528-2.268-.648v-.72c.936.072 2.232.108 3.888.108 1.44 0 2.556-.036 3.348-.108v.72zm22.788-.72c-.168 1.824-.252 3.456-.252 4.896 0 1.344.036 2.4.108 3.168h-.828c-.336-1.824-.744-3.252-1.224-4.284-.456-1.032-1.056-1.776-1.8-2.232-.72-.48-1.656-.72-2.808-.72h-1.116v16.884c0 1.008.096 1.74.288 2.196.192.456.528.768 1.008.936.48.168 1.26.276 2.34.324V26c-1.296-.072-3.456-.108-6.48-.108-3.048 0-5.148.036-6.3.108v-.72c1.08-.048 1.86-.156 2.34-.324.48-.168.816-.48 1.008-.936.192-.456.288-1.188.288-2.196V4.94h-1.116c-1.152 0-2.1.24-2.844.72-.72.456-1.32 1.2-1.8 2.232-.456 1.032-.852 2.46-1.188 4.284h-.828c.072-.768.108-1.824.108-3.168 0-1.44-.084-3.072-.252-4.896 2.088.072 5.616.108 10.584.108 5.064 0 8.652-.036 10.764-.108zm11.427-.504c1.104 0 2.04.12 2.808.36.792.24 1.536.564 2.232.972.264.144.492.264.684.36.216.096.396.144.54.144.216 0 .384-.12.504-.36.12-.264.216-.672.288-1.224h.828c-.12 1.44-.18 3.936-.18 7.488h-.828c-.264-2.16-.96-3.852-2.088-5.076-1.128-1.248-2.604-1.872-4.428-1.872-1.2 0-2.172.264-2.916.792-.72.528-1.08 1.212-1.08 2.052 0 .648.192 1.248.576 1.8.408.528.936 1.02 1.584 1.476.648.456 1.596 1.056 2.844 1.8l.792.468c1.44.816 2.616 1.56 3.528 2.232.912.648 1.668 1.428 2.268 2.34.6.888.9 1.896.9 3.024 0 1.968-.816 3.48-2.448 4.536-1.632 1.056-3.78 1.584-6.444 1.584-1.152 0-2.148-.132-2.988-.396-.84-.24-1.692-.576-2.556-1.008-.6-.288-1.02-.432-1.26-.432-.216 0-.384.132-.504.396-.12.24-.216.636-.288 1.188h-.828c.096-1.344.144-4.272.144-8.784h.828c.168 2.544.852 4.548 2.052 6.012 1.224 1.464 2.94 2.196 5.148 2.196 1.08 0 2.016-.276 2.808-.828.792-.552 1.188-1.368 1.188-2.448 0-.96-.372-1.788-1.116-2.484-.744-.696-2.016-1.572-3.816-2.628-2.28-1.296-4.032-2.532-5.256-3.708-1.2-1.176-1.8-2.556-1.8-4.14 0-1.872.768-3.312 2.304-4.32 1.56-1.008 3.552-1.512 5.976-1.512z" fill="#000"/></svg>